<svg width="32" height="32" viewBox="0 0 32 32" fill="none" xmlns="http://www.w3.org/2000/svg">
<path d="M27.6 0H4.30002C1.90002 0 0 1.9 0 4.3V27.6C0 30 1.90002 31.9 4.30002 31.9H15.8V20.5H12.8C12.4 20.5 12.1 20.2 12.1 19.8V16.1C12.1 15.7 12.4 15.4 12.8 15.4H15.8V11.8C15.8 7.7 18.3 5.4 22 5.4H25C25.4 5.4 25.7 5.7 25.7 6.1V9.2C25.7 9.6 25.4 9.9 25 9.9H23.1C21.1 9.9 20.7 10.9 20.7 12.2V15.3H25.1C25.5 15.3 25.8 15.7 25.8 16.1L25.4 19.8C25.4 20.2 25.1 20.4 24.7 20.4H20.8V31.8H27.6C30 31.8 31.9 29.9 31.9 27.5V4.3C31.9 1.9 30 0 27.6 0Z" fill="white"/>
</svg>
