<svg width="33" height="33" viewBox="0 0 33 33" fill="none" xmlns="http://www.w3.org/2000/svg">
<path d="M32 21.6C32 16.9 28.9 12.9 24.4 11.6C24.1 5.2 18.7 0 12.2 0C5.49995 0 0 5.5 0 12.2C0 14.4 0.599951 16.5 1.69995 18.4L0.0999756 24.4L6.09998 22.8C7.79998 23.8 9.79999 24.4 11.8 24.5C13 28.9 17.1 32.1 21.8 32.1C23.7 32.1 25.5 31.6 27.1 30.7L32.1 32.1L30.7 27.1C31.5 25.3 32 23.5 32 21.6ZM6.29999 20.7L2.69995 21.7L3.69995 18.1L3.5 17.7C2.4 16 1.89996 14.1 1.89996 12.1C1.89996 6.4 6.49995 1.8 12.2 1.8C17.9 1.8 22.5 6.4 22.5 12.1C22.5 17.8 17.9 22.4 12.2 22.4C10.2 22.4 8.29998 21.8 6.59998 20.8L6.29999 20.7ZM29.2 29.2L26.6 28.5L26.2 28.7C24.8 29.6 23.2 30.1 21.6 30.1C17.9 30.1 14.7 27.7 13.6 24.3C19.2 23.7 23.7 19.2 24.3 13.6C27.7 14.7 30.1 18 30.1 21.6C30.1 23.2 29.6 24.8 28.7 26.2L28.5 26.6L29.2 29.2Z" fill="white"/>
<path d="M11.3 16.9H13.2V18.8H11.3V16.9Z" fill="white"/>
<path d="M14.1 9.4C14.1 9.9 13.9 10.4 13.5 10.8L11.3 12.8V15H13.2V13.5L14.8 12C15.6 11.3 16 10.3 16 9.2C16 7.1 14.3 5.5 12.3 5.5C10.3 5.5 8.59998 7.2 8.59998 9.2H10.5C10.5 8.2 11.3 7.3 12.4 7.3C13.5 7.3 14.1 8.3 14.1 9.4Z" fill="white"/>
</svg>
