<svg width="32" height="32" viewBox="0 0 32 32" fill="none" xmlns="http://www.w3.org/2000/svg">
<path d="M22.2 0.100006H9.39999C4.19999 0.100006 0 4.30001 0 9.50001V22.3C0 27.5 4.19999 31.7 9.39999 31.7H22.2C27.4 31.7 31.6 27.5 31.6 22.3V9.60001C31.6 4.30001 27.4 0.100006 22.2 0.100006ZM28.4 22.4C28.4 25.8 25.6 28.7 22.1 28.7H9.30002C5.90002 28.7 3 25.9 3 22.4V9.60001C3 6.20001 5.80002 3.30001 9.30002 3.30001H22.1C25.5 3.30001 28.4 6.10001 28.4 9.60001V22.4Z" fill="white"/>
<path d="M15.8 7.80001C11.3 7.80001 7.60001 11.5 7.60001 16C7.60001 20.5 11.3 24.2 15.8 24.2C20.3 24.2 24 20.5 24 16C24 11.4 20.3 7.80001 15.8 7.80001ZM15.8 21C13 21 10.8 18.8 10.8 16C10.8 13.2 13 11 15.8 11C18.6 11 20.8 13.2 20.8 16C20.8 18.8 18.5 21 15.8 21Z" fill="white"/>
</svg>
