<svg width="32" height="28" viewBox="0 0 32 28" fill="none" xmlns="http://www.w3.org/2000/svg">
<path d="M26.4019 5.7C26.4019 5.8 26.4019 5.9 26.3019 6L12.7019 18C12.6019 18.1 12.5019 18.3 12.5019 18.5L12.0019 25.8C12.0019 25.9 11.9019 25.9 11.8019 25.9C12.2019 26.1 12.8019 26 13.1019 25.6L16.9019 21.7L24.4019 27.2C25.3019 27.9 26.6019 27.4 26.9019 26.3L31.9019 2.5C32.0019 1.8 31.7019 1.2 31.2019 0.899996C30.8019 0.699996 30.3019 0.599996 29.9019 0.799996L0.701869 12C-0.298131 12.4 -0.198125 13.7 0.801875 14L8.20187 16.2L11.0019 25C11.1019 25.4 11.4019 25.7 11.8019 25.8C11.8019 25.8 11.7019 25.8 11.7019 25.7L9.50189 16.1C9.50189 16 9.50189 16 9.50189 15.9C9.50189 15.7 9.60188 15.4 9.80188 15.3L17.8019 10.3L25.8019 5.3C25.9019 5.2 26.0019 5.2 26.1019 5.3C26.3019 5.4 26.4019 5.5 26.4019 5.7Z" fill="white"/>
</svg>
