<svg width="32" height="28" viewBox="0 0 32 28" fill="none" xmlns="http://www.w3.org/2000/svg">
<path d="M31.3266 3.80001C30.6266 4.10001 29.9266 4.40001 29.1266 4.50001C29.9266 3.70001 30.5266 2.70001 30.9266 1.60001C31.0266 1.30001 30.7266 1.00001 30.4266 1.20001C29.4266 1.80001 28.2266 2.30001 27.1266 2.60001C27.0266 2.60001 27.0266 2.60001 26.9266 2.60001C26.7266 2.60001 26.5266 2.50001 26.3266 2.40001C25.1266 1.30001 23.4266 0.700012 21.8266 0.700012C21.1266 0.700012 20.4266 0.800012 19.6266 1.00001C17.4266 1.70001 15.7266 3.50001 15.1266 5.80001C14.9266 6.70001 14.8266 7.50001 14.9266 8.30001C14.9266 8.40001 14.9266 8.50001 14.8266 8.50001C14.7266 8.60001 14.7266 8.60001 14.6266 8.60001C9.7266 8.20001 5.4266 5.80001 2.3266 2.00001C2.1266 1.80001 1.82661 1.80001 1.72661 2.00001C1.12661 3.00001 0.826601 4.20001 0.826601 5.40001C0.826601 7.30001 1.5266 9.00001 2.8266 10.3C2.3266 10.2 1.72661 10 1.22661 9.70001C1.02661 9.60001 0.726611 9.70001 0.726611 10C0.726611 12.8 2.32661 15.2 4.72661 16.3C4.62661 16.3 4.6266 16.3 4.6266 16.3C4.2266 16.3 3.82661 16.3 3.42661 16.2C3.12661 16.1 2.9266 16.4 3.0266 16.7C3.8266 19.2 5.92661 21 8.42661 21.4C6.32661 22.8 3.9266 23.6 1.3266 23.6H0.526598C0.326598 23.6 0.126598 23.8 0.0265984 24C-0.0734016 24.2 0.126601 24.5 0.326601 24.6C3.2266 26.3 6.42661 27.1 9.72661 27.1C12.6266 27.1 15.3266 26.5 17.8266 25.4C20.0266 24.4 22.0266 22.9 23.7266 21C25.3266 19.2 26.5266 17.2 27.3266 14.9C28.1266 12.7 28.5266 10.5 28.5266 8.30001V8.20001C28.5266 7.80001 28.7266 7.50001 28.9266 7.30001C30.0266 6.40001 30.9266 5.40001 31.6266 4.30001C32.0266 4.10001 31.6266 3.70001 31.3266 3.80001Z" fill="white"/>
</svg>
