<svg width="37" height="21" viewBox="0 0 37 21" fill="none" xmlns="http://www.w3.org/2000/svg">
<path d="M35.9 18.8C35.9 18.7 35.8 18.6 35.8 18.6C35.2 17.5 34 16.1 32.2 14.5C31.4 13.7 30.9 13.2 30.7 13C30.3 12.5 30.2 12 30.4 11.5C30.5 11.1 31.1 10.3 32.1 9.00001C32.6 8.30001 33 7.80001 33.3 7.40001C35.5 4.50001 36.4 2.70001 36.1 1.90001L36 1.70001C35.9 1.60001 35.7 1.50001 35.4 1.40001C35.1 1.30001 34.7 1.30001 34.2 1.40001H28.8C28.7 1.40001 28.6 1.40001 28.4 1.40001C28.2 1.40001 28.2 1.50001 28.2 1.50001H28.1L28 1.60001C27.9 1.60001 27.9 1.70001 27.8 1.80001C27.7 1.90001 27.7 2.00001 27.6 2.10001C27 3.60001 26.3 5.00001 25.6 6.30001C25.1 7.10001 24.7 7.70001 24.3 8.30001C23.9 8.90001 23.6 9.30001 23.3 9.60001C23 9.90001 22.8 10.1 22.6 10.2C22.4 10.4 22.2 10.4 22.1 10.4C22 10.4 21.9 10.3 21.8 10.3C21.6 10.2 21.5 10 21.4 9.80001C21.3 9.60001 21.2 9.40001 21.2 9.10001C21.2 8.80001 21.1 8.60001 21.1 8.30001C21.1 8.10001 21.1 7.80001 21.1 7.40001C21.1 7.00001 21.1 6.80001 21.1 6.60001C21.1 6.10001 21.1 5.60001 21.1 5.10001C21.1 4.50001 21.1 4.10001 21.1 3.80001C21.1 3.50001 21.1 3.10001 21.1 2.80001C21.1 2.50001 21.1 2.20001 21 1.90001C21 1.70001 20.9 1.50001 20.8 1.30001C20.8 1.00001 20.7 0.800012 20.5 0.700012C20.3 0.600012 20.1 0.500012 19.9 0.400012C19.2 0.300012 18.4 0.200012 17.4 0.200012C15.1 0.200012 13.6 0.300012 12.9 0.700012C12.6 0.800012 12.4 1.00001 12.2 1.30001C12 1.60001 11.9 1.70001 12.1 1.70001C12.8 1.80001 13.4 2.10001 13.7 2.50001L13.8 2.70001C13.9 2.90001 14 3.10001 14.1 3.60001C14.2 4.00001 14.2 4.50001 14.3 5.00001C14.4 5.90001 14.4 6.70001 14.3 7.30001C14.2 7.90001 14.2 8.50001 14.1 8.80001C14 9.10001 14 9.50001 13.8 9.70001C13.7 9.90001 13.6 10.1 13.6 10.1L13.5 10.2C13.3 10.3 13.2 10.3 13 10.3C12.8 10.3 12.6 10.2 12.4 10C12.2 9.80001 11.9 9.60001 11.6 9.30001C11.3 9.00001 11 8.60001 10.7 8.00001C10.4 7.50001 10 6.80001 9.7 6.10001L9.4 5.60001C9.1 5.20001 8.9 4.70001 8.5 4.00001C8.2 3.30001 7.9 2.70001 7.6 2.10001C7.5 1.80001 7.4 1.60001 7.2 1.50001L7.1 1.40001C7 1.40001 6.9 1.30001 6.8 1.20001C6.7 1.10001 6.5 1.10001 6.4 1.10001H1.3C0.799999 1.10001 0.400001 1.20001 0.200001 1.50001L0.0999985 1.60001C0.0999985 1.70001 0 1.80001 0 1.90001C0 2.00001 -1.52737e-06 2.20001 0.0999985 2.40001C0.799998 4.20001 1.7 5.90001 2.5 7.50001C3.4 9.10001 4.1 10.5 4.8 11.5C5.4 12.5 6.1 13.4 6.8 14.3C7.5 15.2 7.9 15.8 8.1 16C8.3 16.3 8.5 16.4 8.6 16.6L9.1 17C9.4 17.3 9.8 17.7 10.4 18.1C11 18.5 11.6 18.9 12.3 19.3C13 19.7 13.8 20 14.8 20.3C15.7 20.6 16.6 20.7 17.5 20.6H19.7C20.1 20.6 20.5 20.4 20.7 20.2L20.8 20.1C20.9 20 20.9 19.9 20.9 19.8C20.9 19.6 21 19.5 21 19.3C21 18.8 21 18.3 21.1 17.8C21.2 17.4 21.3 17 21.4 16.8C21.5 16.6 21.7 16.4 21.8 16.2C21.9 16.1 22.1 16 22.1 15.9C22.2 15.9 22.2 15.8 22.2 15.8C22.5 15.7 22.9 15.8 23.3 16.1C23.7 16.4 24.1 16.8 24.4 17.2C24.8 17.6 25.2 18.1 25.7 18.7C26.2 19.2 26.6 19.6 27 19.9L27.4 20.1C27.7 20.3 28 20.4 28.4 20.5C28.8 20.6 29.1 20.7 29.4 20.6L34.2 20.5C34.7 20.5 35 20.4 35.3 20.3C35.6 20.1 35.7 20 35.8 19.8C35.9 19.6 35.9 19.4 35.8 19.2C36 19 35.9 18.9 35.9 18.8Z" fill="white"/>
</svg>
