<svg width="26" height="26" viewBox="0 0 26 26" fill="none" xmlns="http://www.w3.org/2000/svg">
<path d="M12.8 0.200012C5.7 0.200012 0 5.90001 0 13C0 20 5.7 25.8 12.8 25.8C19.9 25.8 25.5 20 25.5 13C25.5 5.90001 19.8 0.200012 12.8 0.200012ZM12.8 23.6C11.5 23.6 10.3 23.4 9.1 22.9C9.6 22.5 10 21.6 10.1 21.3C10.2 20.9 9.8 20 9.8 19.8C9.8 19.6 8.7 18.3 8.4 18.2C8.1 18 8.4 17 8.4 16.4C8.4 15.8 6.9 15.4 6.4 15C5.9 14.6 5.7 16 5 15.7C4.4 15.4 4.5 14.5 4.4 13.8C4.4 13.2 3 13.1 2.2 13C2.2 8.40001 5.2 4.40001 9.4 3.00001L9.3 3.10001C8.9 3.60001 8.3 3.10001 8.5 4.70001C8.7 6.30001 8.4 7.00001 9.6 7.20001C10.7 7.40001 11.2 7.10001 11.9 7.20001C12.7 7.30001 12.6 9.20001 12.8 9.20001C12.8 9.20001 13.8 12 16.8 12.8C17.4 13 16.1 14.3 15.2 14.7C14.3 15.1 13.5 15.1 13.3 16.1C13.2 17.1 14.6 16.5 14.9 16.7C15.3 16.9 16.8 17.5 17.4 16.6C18 15.7 20.6 16 20.4 15.1C19.9 13 23.4 12 22.4 10.6C22.2 10.3 22.2 9.30001 22.1 8.20001C22.8 9.60001 23.3 11.3 23.3 13C23.3 18.8 18.6 23.6 12.8 23.6Z" fill="white"/>
</svg>
