<svg width="43" height="28" viewBox="0 0 43 28" fill="none" xmlns="http://www.w3.org/2000/svg">
<path d="M43 0.700012C43 0.900012 43 1.00001 42.9 1.10001C42.8 1.20001 42.7 1.30001 42.6 1.30001C41.7 1.40001 40.9 1.70001 40.3 2.20001C39.7 2.70001 39.1 3.70001 38.4 5.20001L28.6 27.3C28.5 27.5 28.4 27.6 28.1 27.6C27.9 27.6 27.7 27.5 27.6 27.3L22.1 15.8L15.8 27.3C15.7 27.5 15.5 27.6 15.3 27.6C15 27.6 14.8 27.5 14.7 27.3L5.09999 5.20001C4.49999 3.80001 3.9 2.90001 3.2 2.30001C2.5 1.80001 1.59999 1.40001 0.399994 1.30001C0.299994 1.30001 0.199998 1.20001 0.0999985 1.10001C-1.52737e-06 1.00001 0 0.900012 0 0.700012C0 0.300012 0.0999954 0.200012 0.299995 0.200012C1.2 0.200012 2.1 0.200012 3 0.300012C3.9 0.400012 4.7 0.400012 5.5 0.400012C6.3 0.400012 7.2 0.400012 8.3 0.300012C9.4 0.200012 10.4 0.200012 11.3 0.200012C11.5 0.200012 11.6 0.400012 11.6 0.700012C11.6 1.10001 11.5 1.20001 11.4 1.20001C10.5 1.30001 9.89999 1.50001 9.39999 1.90001C8.89999 2.30001 8.7 2.80001 8.7 3.40001C8.7 3.70001 8.8 4.10001 9 4.60001L17 22.6L21.5 14.1L17.3 5.30001C16.5 3.70001 15.9 2.70001 15.4 2.20001C14.9 1.70001 14.2 1.50001 13.2 1.40001C13.1 1.40001 13 1.30001 12.9 1.20001C12.8 1.10001 12.8 1.00001 12.8 0.800012C12.8 0.400012 12.9 0.300012 13.1 0.300012C14 0.300012 14.7 0.300012 15.5 0.400012C16.2 0.500012 16.9 0.500012 17.7 0.500012C18.5 0.500012 19.3 0.500012 20.1 0.400012C21 0.300012 21.9 0.300012 22.7 0.300012C22.9 0.300012 23 0.500012 23 0.800012C23 1.20001 22.9 1.30001 22.8 1.30001C21.1 1.40001 20.2 1.90001 20.2 2.80001C20.2 3.20001 20.4 3.80001 20.8 4.60001L23.6 10.3L26.4 5.10001C26.8 4.40001 27 3.80001 27 3.30001C27 2.10001 26.1 1.50001 24.4 1.40001C24.2 1.40001 24.2 1.20001 24.2 0.900012C24.2 0.800012 24.2 0.600012 24.3 0.500012C24.4 0.400012 24.5 0.300012 24.5 0.300012C25.1 0.300012 25.9 0.300012 26.8 0.400012C27.7 0.500012 28.4 0.500012 28.9 0.500012C29.3 0.500012 29.9 0.500012 30.7 0.400012C31.7 0.300012 32.5 0.300012 33.1 0.300012C33.3 0.300012 33.3 0.500012 33.3 0.800012C33.3 1.20001 33.2 1.40001 32.9 1.40001C31.9 1.50001 31.1 1.80001 30.5 2.20001C29.9 2.60001 29.1 3.70001 28.2 5.30001L24.5 12.1L29.5 22.3L36.5 5.00001C36.8 4.40001 36.9 3.80001 36.9 3.30001C36.9 2.00001 36 1.40001 34.3 1.30001C34.1 1.30001 34.1 1.10001 34.1 0.800012C34.1 0.400012 34.2 0.300012 34.4 0.300012C35 0.300012 35.8 0.300012 36.6 0.400012C37.4 0.500012 38.1 0.500012 38.6 0.500012C39.2 0.500012 39.8 0.500012 40.6 0.400012C41.4 0.300012 42.1 0.300012 42.7 0.300012C42.9 0.200012 43 0.300012 43 0.700012Z" fill="white"/>
</svg>
