<?xml version="1.0" standalone="no"?>
<!DOCTYPE svg PUBLIC "-//W3C//DTD SVG 20010904//EN"
 "http://www.w3.org/TR/2001/REC-SVG-20010904/DTD/svg10.dtd">
<svg version="1.0" xmlns="http://www.w3.org/2000/svg"
 width="1625.000000pt" height="1625.000000pt" viewBox="0 0 1625.000000 1625.000000"
 preserveAspectRatio="xMidYMid meet">
<metadata>
Created by potrace 1.11, written by Peter Selinger 2001-2013
</metadata>
<g transform="translate(0.000000,1625.000000) scale(0.100000,-0.100000)"
fill="#000000" stroke="none">
<path d="M2698 12762 c-122 -122 -1358 -1347 -1798 -1782 -140 -139 -400 -396
-577 -572 l-323 -320 0 -1970 0 -1970 229 -226 c432 -428 1704 -1687 1950
-1930 135 -134 330 -327 432 -429 l186 -185 2002 0 c1102 0 2004 2 2005 4 2 1
57 109 123 238 66 129 157 305 201 390 44 85 102 199 130 253 l50 97 -18 63
c-10 34 -53 190 -95 347 -102 380 -123 459 -134 495 -5 17 -19 68 -31 115 -12
47 -35 130 -51 185 -15 55 -30 111 -33 125 -3 14 -25 99 -50 190 -61 219 -100
363 -102 373 -1 4 -2 8 -3 10 -2 1 -4 12 -7 25 -2 13 -22 87 -44 165 -21 78
-49 178 -60 222 -51 189 -81 299 -120 440 -23 83 -43 159 -45 170 -3 11 -24
92 -48 180 -43 156 -59 215 -61 225 -1 3 -14 50 -29 105 -15 55 -43 158 -62
229 -19 71 -37 131 -39 133 -2 2 -16 5 -32 7 -16 2 -76 14 -134 26 -58 11
-116 23 -130 25 -14 1 -43 8 -65 13 -22 6 -56 13 -75 16 -19 3 -161 31 -315
61 -349 70 -341 69 -363 47 -10 -9 -44 -39 -76 -67 -92 -79 -99 -85 -132 -115
-18 -16 -69 -61 -115 -100 -46 -40 -95 -82 -109 -94 -47 -41 -195 -170 -225
-197 -36 -33 -59 -52 -118 -102 -43 -36 -45 -39 -36 -70 6 -18 12 -39 14 -48
2 -8 11 -40 20 -70 9 -30 18 -63 21 -74 2 -11 18 -69 34 -130 17 -60 33 -117
35 -125 2 -8 13 -49 25 -90 12 -41 23 -84 25 -95 2 -11 17 -69 35 -130 17 -60
33 -117 35 -125 2 -8 40 -148 85 -310 44 -162 83 -304 85 -315 3 -11 30 -110
60 -220 31 -110 58 -208 60 -218 2 -10 20 -77 40 -150 20 -72 34 -135 32 -141
-3 -8 -202 -11 -655 -10 l-650 0 -90 90 c-49 49 -416 412 -815 807 l-726 719
0 1158 0 1159 47 46 c26 26 377 374 781 773 404 400 744 737 757 749 l23 23
1587 2 1587 3 102 205 c57 113 168 336 248 497 l145 291 -223 444 c-123 244
-236 468 -252 498 l-29 55 -1990 2 -1989 1 -117 -116z"/>
<path d="M9330 12638 c-67 -134 -181 -359 -252 -501 l-130 -259 248 -499 248
-499 1587 0 1587 0 478 -474 c264 -261 625 -618 804 -795 l325 -321 0 -1158 1
-1157 -266 -264 c-404 -401 -1261 -1250 -1318 -1305 l-51 -49 -655 -1 c-578
-1 -655 1 -652 14 3 8 16 58 30 110 39 147 52 193 96 355 23 83 43 157 45 165
2 8 26 98 54 200 28 102 53 193 56 203 2 10 7 27 10 37 3 10 8 27 10 37 2 10
61 225 130 478 174 634 188 686 178 694 -71 61 -229 197 -233 201 -3 3 -54 48
-115 100 -60 52 -115 99 -121 105 -9 9 -98 86 -158 138 -12 10 -35 31 -51 45
-17 15 -59 51 -93 81 l-63 54 -82 -17 c-45 -9 -91 -19 -102 -21 -11 -2 -67
-13 -125 -24 -58 -12 -114 -23 -125 -25 -254 -50 -405 -79 -425 -82 -14 -3
-32 -7 -40 -9 -8 -2 -28 -7 -45 -10 -140 -26 -148 -29 -157 -60 -4 -16 -20
-73 -34 -125 -14 -52 -46 -169 -70 -260 -25 -91 -47 -173 -49 -183 -2 -10 -7
-27 -10 -37 -3 -10 -8 -27 -10 -37 -2 -10 -9 -34 -15 -53 -6 -19 -13 -44 -15
-55 -3 -11 -50 -186 -105 -390 -56 -203 -110 -403 -120 -442 -11 -40 -29 -108
-41 -150 -12 -43 -29 -109 -39 -148 -18 -68 -54 -201 -160 -590 -29 -104 -65
-237 -80 -295 -16 -58 -41 -150 -55 -205 -15 -55 -28 -104 -29 -110 -1 -5 -9
-35 -18 -65 -9 -30 -27 -98 -41 -150 -15 -52 -49 -179 -77 -283 l-51 -188 44
-87 c24 -48 75 -148 114 -222 62 -120 142 -273 298 -577 37 -72 52 -93 69 -94
11 0 913 0 2003 0 l1981 -1 140 139 c77 76 476 471 887 878 785 777 1069 1058
1505 1488 l264 262 2 1970 1 1970 -376 374 c-430 427 -1672 1657 -2134 2114
l-312 307 -1986 0 -1986 0 -123 -242z"/>
</g>
</svg>
