<svg width="16" height="16" viewBox="0 0 16 16" fill="none" xmlns="http://www.w3.org/2000/svg">
<path d="M15.9591 14.9083L13.1179 12.067C15.494 9.16934 15.3286 4.87633 12.6119 2.16158C9.73175 -0.720528 5.05343 -0.720528 2.16158 2.16158C-0.720528 5.05343 -0.720528 9.73175 2.16158 12.6119C4.87633 15.3286 9.16934 15.494 12.067 13.1179L14.9083 15.9591C14.9705 16.0136 15.0698 16.0136 15.1223 15.9591L15.9591 15.1223C16.0136 15.0698 16.0136 14.9705 15.9591 14.9083ZM11.5805 11.5805C9.26859 13.8905 5.52437 13.8905 3.21245 11.5805C0.902485 9.26859 0.902485 5.52437 3.21245 3.21245C5.52437 0.902485 9.26859 0.902485 11.5805 3.21245C13.8905 5.52437 13.8905 9.26859 11.5805 11.5805Z" fill="#98A1A3"/>
</svg>
