<svg width="1698" height="1004" viewBox="0 0 1698 1004" fill="none" xmlns="http://www.w3.org/2000/svg">
<g clip-path="url(#clip0)">
<path d="M935.2 105.6L988 0H1403.3L1698 294.7V710.9L1405.5 1003.4H987.1L934.3 900L1041.7 498.8L1156 476L1244 553.4L1178.9 794.5H1316.2L1486.8 623.8V379.2L1318.8 211.2H987.1L935.2 105.6Z" fill="white"/>
<path d="M762.8 105.6L710 0H294.7L0 294.7V710.9L292.5 1003.4H710.9L763.7 900L656.3 498.8L542 476L454 553.4L519.1 794.5H381.8L211.2 623.8V379.2L379.2 211.2H710.9L762.8 105.6Z" fill="white"/>
</g>
<defs>
<clipPath id="clip0">
<rect width="1698" height="1003.4" fill="white"/>
</clipPath>
</defs>
</svg>
